# xmcd
#
# Track frame offsets:
#        150
#        25871
#        50412
#        61677
#        99340
#        132647
#        158769
#        180969
#        201932
#        229403
#        246012
#        265058
#        282999
#        293363
#        307058
#        325791
#
# Disc length: 4541 seconds
#
# Revision: 4
# Processed by: cddbd v1.5.1PL2 Copyright (c) Steve Scherf et al.
# Submitted via: ExactAudioCopy v0.95b3
#
DISCID=db11bb10
DTITLE=Jeff Beck - Beckology (Volume 3)
DYEAR=1991
DGENRE=Rock
TTITLE0=Jeff Beck - Cause We've Ended As Lovers
TTITLE1=Jeff Beck - Goodbye Pork Pie Hat
TTITLE2=Jeff Beck - Love Is Green
TTITLE3=Jeff Beck with The Jan Hammer Group - Diamond Dust
TTITLE4=Jeff Beck - Freeway Jam (Live)
TTITLE5=Jeff Beck - The Pump
TTITLE6=Jeff Beck and Rod Stewart - People Get Ready
TTITLE7=Jeff Beck - Escape
TTITLE8=Jeff Beck - Gets Us All In The End
TTITLE9=Jeff Beck - Back On The Street
TTITLE10=Jeff Beck - Wild Thing
TTITLE11=Jeff Beck - The Train Kept A-Rollin'
TTITLE12=Jeff Beck - Sleep Walk
TTITLE13=Jeff Beck - The Stumble
TTITLE14=Jeff Beck with Terry Bozzio and Tony Hymas - Big Block
TTITLE15=Jeff Beck with Terry Bozzio and Tony Hymas - Where Were You
EXTD=
EXTT0=
EXTT1=
EXTT2=
EXTT3=
EXTT4=
EXTT5=
EXTT6=
EXTT7=
EXTT8=
EXTT9=
EXTT10=
EXTT11=
EXTT12=
EXTT13=
EXTT14=
EXTT15=
PLAYORDER=
